<svg id="Layer_1" data-name="Layer 1" xmlns="http://www.w3.org/2000/svg" xmlns:xlink="http://www.w3.org/1999/xlink" viewBox="0 0 56 56"><defs><style>.cls-1{fill:url(#linear-gradient);}.cls-2{fill:#fff;}</style><linearGradient id="linear-gradient" x1="1" y1="28" x2="55" y2="28" gradientUnits="userSpaceOnUse"><stop offset="0" stop-color="#d550f5"/><stop offset="1" stop-color="#9baffc"/></linearGradient></defs><title>Weight Loss + PCOS Management</title><circle class="cls-1" cx="28" cy="28" r="27"/><path class="cls-2" d="M46.52,24a7.45,7.45,0,0,0-7.44-7.44,8.37,8.37,0,0,0-4.75,1.79l-.23.15a9.88,9.88,0,0,1-6.1,2,9.9,9.9,0,0,1-6.2-2l-.14-.09a8.38,8.38,0,0,0-4.74-1.78,7.45,7.45,0,0,0-4.92,13,4,4,0,0,0,5.58,4.49,2,2,0,0,0,.87-.84,3.94,3.94,0,0,0-.71-4.58,4.09,4.09,0,0,0-4.54-.8l-.13.06A5.43,5.43,0,0,1,11.43,24a5.49,5.49,0,0,1,5.49-5.49,4.86,4.86,0,0,1,.69.05c.08,0,1.85.6,2,4.05,0,1.91.92,5.41,4.47,6.38A4,4,0,0,1,27,32.68c0,2.55,0,5.66,0,5.8a1,1,0,0,0,1,1h0a1,1,0,0,0,1-1c0-.54,0-3.24,0-5.52a1.8,1.8,0,0,0,0-.22A3.89,3.89,0,0,1,32,29c4.48-1.23,4.46-6.3,4.46-6.34.17-3.15,1.62-3.93,2-4.09a4.46,4.46,0,0,1,.63-.05A5.49,5.49,0,0,1,44.57,24a5.59,5.59,0,0,1-1.51,3.8,4.09,4.09,0,0,0-4.42.86,4,4,0,0,0-.7,4.58,2,2,0,0,0,.87.84,4,4,0,0,0,4.55-.8,3.9,3.9,0,0,0,.94-4A7.49,7.49,0,0,0,46.52,24ZM42,31.91a1.9,1.9,0,0,1-2.31.4A2,2,0,0,1,40,30a2.08,2.08,0,0,1,1.47-.6,1.93,1.93,0,0,1,.85.2A2,2,0,0,1,42,31.91Zm-6.9-9.33ZM31.46,27.1A6.47,6.47,0,0,0,28,29.49a6.56,6.56,0,0,0-3.41-2.38c-3-.83-3-4.18-3-4.56a10.17,10.17,0,0,0-.34-2.17,11.35,11.35,0,0,0,6.75,2,11.31,11.31,0,0,0,6.82-2.05,9.83,9.83,0,0,0-.35,2.21v.07C34.47,22.77,34.52,26.26,31.46,27.1ZM14.05,29.6h0a1.9,1.9,0,0,1,.83-.18,2.08,2.08,0,0,1,1.47.6,2,2,0,0,1,.34,2.33,2.06,2.06,0,0,1-2.29-.43A2,2,0,0,1,14.05,29.6Z"/></svg>