<svg id="Layer_1" data-name="Layer 1" xmlns="http://www.w3.org/2000/svg" xmlns:xlink="http://www.w3.org/1999/xlink" viewBox="0 0 56 56"><defs><style>.cls-1{fill:url(#linear-gradient);}.cls-2{fill:#fff;}</style><linearGradient id="linear-gradient" x1="1" y1="28" x2="55" y2="28" gradientUnits="userSpaceOnUse"><stop offset="0" stop-color="#f58345"/><stop offset="1" stop-color="#f7cb5d"/></linearGradient></defs><title>Fat loss with Detoxification</title><circle class="cls-1" cx="28" cy="28" r="27"/><path class="cls-2" d="M27.94,13.92a8.08,8.08,0,0,0-5.77,2.4,8.19,8.19,0,0,0-2.4,5.82v.79H35.3l.79.08,0-.91A8.19,8.19,0,0,0,27.94,13.92Zm6.56,7.43H21.4a6.59,6.59,0,0,1,13.1,0Z"/><path class="cls-2" d="M24.65,19.85a.63.63,0,0,1-.42-.17l-2-2a.59.59,0,0,1,.84-.84l2,2a.58.58,0,0,1,0,.84A.59.59,0,0,1,24.65,19.85Z"/><path class="cls-2" d="M31.91,20.33a.59.59,0,0,1-.42-.17.58.58,0,0,1,0-.84l2-2a.59.59,0,0,1,.84.84l-2,2A.63.63,0,0,1,31.91,20.33Z"/><path class="cls-2" d="M28.17,18.32a.6.6,0,0,1-.6-.59V14.91a.6.6,0,0,1,1.19,0v2.82A.6.6,0,0,1,28.17,18.32Z"/><path class="cls-2" d="M28.39,20l2.36-.9-.89,2.36a1.14,1.14,0,0,1-1.87.41h0A1.14,1.14,0,0,1,28.39,20Z"/><path class="cls-2" d="M42.24,15.86a2.54,2.54,0,0,0-1.9-.85H32.12a.94.94,0,0,0-.94.94c0,.52,1,.92,1.54.92l7.62,0a.65.65,0,0,1,.64.72l-2.77,22a.64.64,0,0,1-.63.56H18.42a.64.64,0,0,1-.63-.56L15,17.61a.65.65,0,0,1,.64-.72H23.6a1.51,1.51,0,0,0,.94-.94.69.69,0,0,0-.68-1h-8.2a2.52,2.52,0,0,0-2.51,2.84l2.77,22a2.52,2.52,0,0,0,2.5,2.21H37.58a2.52,2.52,0,0,0,2.5-2.21l2.77-22A2.53,2.53,0,0,0,42.24,15.86Z"/><path class="cls-2" d="M27.71,32.59a.94.94,0,0,0-.94.94v7.19a.95.95,0,1,0,1.89,0V33.53A1,1,0,0,0,27.71,32.59Z"/></svg>