<svg id="Layer_1" data-name="Layer 1" xmlns="http://www.w3.org/2000/svg" xmlns:xlink="http://www.w3.org/1999/xlink" viewBox="0 0 56 56"><defs><style>.cls-1{fill:url(#linear-gradient);}.cls-2{fill:#fff;}</style><linearGradient id="linear-gradient" x1="1" y1="28" x2="55" y2="28" gradientUnits="userSpaceOnUse"><stop offset="0" stop-color="#ff9771"/><stop offset="1" stop-color="#ff81a3"/></linearGradient></defs><title>Weight Loss + Cholesterol Management</title><circle class="cls-1" cx="28" cy="28" r="27"/><path class="cls-2" d="M28.92,29.76c-.42-.86-.21-1.34.73-1.71-.34-.61-.33-.75.16-1.3a.37.37,0,0,0,.07-.14c.06-.88.33-1.1,1.18-1,.44-.83,1.08-.88,1.61-.17.18-.19.32-.46.54-.58s.52-.06.78-.12a1.14,1.14,0,0,1,1.26.44l.12-.34a1,1,0,0,1,.74-.69,4.83,4.83,0,0,1,.5-.16c.52-.1,1-.18,1.57-.27a1.14,1.14,0,0,0,.36-.1l2.7-1.45.55,1.92-.35.19a36.11,36.11,0,0,0-11.49,9,56.94,56.94,0,0,0-4.69,6.93c-.29.47-.58,1-.85,1.44a.32.32,0,0,1-.43.17l-1.62-.46c.06-.14.1-.25.15-.35a35.12,35.12,0,0,1,3.18-5.47,1.15,1.15,0,0,0,.08-1.06C25.58,33.5,26,33,27,33.28l.49-.69a1,1,0,0,1,0-1.19,1.18,1.18,0,0,0,.35-.81C27.88,30.12,28.26,29.86,28.92,29.76Z"/><path class="cls-2" d="M36,15.29a6.59,6.59,0,0,0-.72.41.28.28,0,0,0-.14.23c.14,1.36-.61,2-1.9,1.54a1.19,1.19,0,0,1-.92.43c-.19,0-.38.31-.51.51a1.16,1.16,0,0,0-.11.51.64.64,0,0,1-.86.63c-.25,0-.33,0-.28.28.15.7-.2,1.09-.92,1a.41.41,0,0,0-.11,0,1,1,0,0,0-.29.85c0,.43-.34.74-.83.75-.2,0-.31,0-.24.28a.69.69,0,0,1-.47,1,.71.71,0,0,1-.87-.67l-1.16.44c.07.76-.28,1.07-1.1.88a2.29,2.29,0,0,1,.2.37.7.7,0,0,1-.43.9c-.1,0-.24.09-.28.18a1.43,1.43,0,0,1-1.83.8c-.1.3-.2.59-.29.89a.54.54,0,0,1-.63.4.87.87,0,0,0-.93.41,47.69,47.69,0,0,0-4.8,7.44l-.21.39c-.4-.62-.77-1.21-1.13-1.8a.35.35,0,0,1,0-.26c4.08-7,9.16-13.14,16-17.65,1.15-.75,2.34-1.44,3.51-2.18a.45.45,0,0,1,.57,0C34.87,14.62,35.4,14.93,36,15.29Z"/><path class="cls-2" d="M21,33.91a.79.79,0,0,1-1.58,0,.79.79,0,1,1,1.58,0Z"/><path class="cls-2" d="M32.17,21.56a.77.77,0,0,1,.8.77.78.78,0,0,1-.77.8.8.8,0,0,1-.8-.77A.78.78,0,0,1,32.17,21.56Z"/><path class="cls-2" d="M24.91,29.2a.65.65,0,1,1-.62-.65A.65.65,0,0,1,24.91,29.2Z"/><path class="cls-2" d="M30.12,24.17a.61.61,0,1,1-1.22,0,.6.6,0,0,1,.62-.59A.59.59,0,0,1,30.12,24.17Z"/><path class="cls-2" d="M18.83,36.86a.61.61,0,0,1-.6.62.6.6,0,0,1-.63-.57.62.62,0,0,1,.61-.65A.63.63,0,0,1,18.83,36.86Z"/><path class="cls-2" d="M23.93,30.79A.62.62,0,0,1,24,32a.61.61,0,0,1-.64-.61A.62.62,0,0,1,23.93,30.79Z"/><path class="cls-2" d="M21.49,35.47a.61.61,0,1,1-.63.59A.63.63,0,0,1,21.49,35.47Z"/><path class="cls-2" d="M27.9,26.73a.61.61,0,1,1-1.21,0,.61.61,0,0,1,1.21,0Z"/><path class="cls-2" d="M36.24,21.4a.63.63,0,0,1-.62.6.6.6,0,0,1-.61-.64.6.6,0,0,1,.63-.58A.63.63,0,0,1,36.24,21.4Z"/><path class="cls-2" d="M37.27,19a.6.6,0,0,1-.62.6A.62.62,0,0,1,36,19a.63.63,0,0,1,.64-.62A.6.6,0,0,1,37.27,19Z"/></svg>