<svg id="Layer_1" data-name="Layer 1" xmlns="http://www.w3.org/2000/svg" xmlns:xlink="http://www.w3.org/1999/xlink" viewBox="0 0 56 56"><defs><style>.cls-1{fill:url(#linear-gradient);}.cls-2{fill:#fff;}</style><linearGradient id="linear-gradient" x1="1" y1="28" x2="55" y2="28" gradientUnits="userSpaceOnUse"><stop offset="0" stop-color="#d550f5"/><stop offset="1" stop-color="#9baffc"/></linearGradient></defs><title>Weight Loss + Hypertension Management</title><circle class="cls-1" cx="28" cy="28" r="27"/><path class="cls-2" d="M35.42,27.32a4.54,4.54,0,0,0-.91,9v.62a3,3,0,1,1-6,0V26.68H30a2,2,0,0,0,2-2V16.29a2,2,0,0,0-2-2h-12a2,2,0,0,0-2,2v8.36a2,2,0,0,0,2,2h4v4.71c-1.52.54-2.56,2.36-2.56,4.56,0,2.65,1.52,4.72,3.47,4.72S26.45,38.6,26.45,36c0-2.19-1.06-4.05-2.56-4.56V26.68H26.7V36.92a4.81,4.81,0,1,0,9.62,0V36.3a4.54,4.54,0,0,0-.9-9Zm2.71,4.56a2.72,2.72,0,1,1-2.71-2.72A2.71,2.71,0,0,1,38.13,31.88Zm-8.09-7H21.77V16.08H30a.21.21,0,0,1,.2.21v8.36A.2.2,0,0,1,30,24.86ZM20,16.08v8.78H18.07a.2.2,0,0,1-.2-.21V16.29a.2.2,0,0,1,.2-.21ZM24.64,36c0,1.56-.78,2.92-1.66,2.92S21.32,37.53,21.32,36s.78-2.91,1.66-2.91S24.64,34.42,24.64,36Z"/><path class="cls-2" d="M36.32,31.43v-.72a.91.91,0,1,0-1.81,0v1.17a.87.87,0,0,0,.32.68l.94.79a1,1,0,0,0,.57.16.9.9,0,0,0,.56-1.59Z"/></svg>