<svg id="Layer_1" data-name="Layer 1" xmlns="http://www.w3.org/2000/svg" xmlns:xlink="http://www.w3.org/1999/xlink" viewBox="0 0 56 56"><defs><style>.cls-1{fill:url(#linear-gradient);}.cls-2{fill:#fff;}</style><linearGradient id="linear-gradient" x1="1" y1="28" x2="55" y2="28" gradientUnits="userSpaceOnUse"><stop offset="0" stop-color="#f58345"/><stop offset="1" stop-color="#f7cb5d"/></linearGradient></defs><title>Weight Loss + SyndromeX Management</title><circle class="cls-1" cx="28" cy="28" r="27"/><path class="cls-2" d="M37.6,34.56l-.82-6.11a9.15,9.15,0,0,0-1.29-8.33V15.2a1.09,1.09,0,0,0-1.1-1.09H21.61a1.09,1.09,0,0,0-1.1,1.09v4.92a9.15,9.15,0,0,0-1.29,8.33l-.81,6.11,0,6.24a1.09,1.09,0,0,0,1.1,1.09h17a1.09,1.09,0,0,0,1.1-1.09V34.56ZM22,36.32l.13,0,.82.31,1.92.77.75.28c.22.08.44.16.66.22l.17.05.45.12V39.7H20.59V35.9l.53.14.16,0Q21.64,36.19,22,36.32Zm.72-2.08-.16-.06c-.3-.09-.59-.19-.93-.28l-.09,0-.81-.18L21,31.6a9.27,9.27,0,0,0,2.84,2.21l.07,0a7.26,7.26,0,0,0,.85.37l.15.06c.27.09.53.17.84.25l.18,0c.26.06.52.11.79.15h.08l.15,0a8.43,8.43,0,0,0,2.07,0l.15,0h.08c.27,0,.54-.09.8-.15l.21-.05.81-.24.15-.06a8.16,8.16,0,0,0,.84-.36l.08,0A9.6,9.6,0,0,0,35,31.6l.29,2.14-.49.13-.18.05-.77.25-.06,0-.76.28-.22.08-.75.28-.07,0a16.32,16.32,0,0,1-4,1.2,11.54,11.54,0,0,1-3.21-1h0l-.86-.35-.24-.09Zm-.25-13.07a1.1,1.1,0,0,0,.24-.68V16.3H33.29v4.19a1.07,1.07,0,0,0,.24.68,7,7,0,0,1,0,8.7,7.25,7.25,0,0,1-2.47,2,7.07,7.07,0,0,1-1.92.62l-.19,0a6.51,6.51,0,0,1-2,0l-.19,0a7.37,7.37,0,0,1-2-.64,7.24,7.24,0,0,1-2.44-2A7,7,0,0,1,22.47,21.17ZM29.1,38.12l.61-.15.19-.06.74-.23.12,0,.89-.32,2-.74.55-.2.17-.06.64-.21.15,0,.26-.08V39.7H29.1Z"/><path class="cls-2" d="M28,29.1h0a1.19,1.19,0,0,0,.78-.32A1.14,1.14,0,0,0,29.1,28a1.1,1.1,0,0,0-2.2,0,1.14,1.14,0,0,0,.32.79A1.23,1.23,0,0,0,28,29.1Z"/><path class="cls-2" d="M43.05,19.43v0l0-.09a1.25,1.25,0,0,0-.11-.18L41.18,17a1.11,1.11,0,0,0-.74-.41,1.12,1.12,0,0,0-.81.23,1.1,1.1,0,0,0-.4.74,1.08,1.08,0,0,0,.23.81l.28.35H38a1.1,1.1,0,0,0,0,2.2h1.7l-.28.34a1.08,1.08,0,0,0-.23.81,1.1,1.1,0,0,0,.4.74,1.11,1.11,0,0,0,.69.24,1.09,1.09,0,0,0,.86-.42l1.72-2.15.07-.12c0-.05.05-.09.08-.15A1.08,1.08,0,0,0,43.05,19.43Z"/><path class="cls-2" d="M16.26,20.93H18a1.1,1.1,0,1,0,0-2.2H16.26l.28-.35a1.12,1.12,0,0,0,.23-.81,1.14,1.14,0,0,0-.4-.74,1.12,1.12,0,0,0-.81-.23,1.09,1.09,0,0,0-.74.41L13.1,19.16a.88.88,0,0,0-.07.13.87.87,0,0,0-.08.14,1.06,1.06,0,0,0,0,.8.43.43,0,0,0,0,.1l.1.18,1.71,2.13a1.09,1.09,0,0,0,.86.42,1.13,1.13,0,0,0,.69-.24,1.11,1.11,0,0,0,.17-1.55Z"/></svg>