<svg id="Layer_1" data-name="Layer 1" xmlns="http://www.w3.org/2000/svg" xmlns:xlink="http://www.w3.org/1999/xlink" viewBox="0 0 56 56"><defs><style>.cls-1{fill:url(#linear-gradient);}.cls-2{fill:#fff;}</style><linearGradient id="linear-gradient" x1="1" y1="28" x2="55" y2="28" gradientUnits="userSpaceOnUse"><stop offset="0" stop-color="#ff9771"/><stop offset="1" stop-color="#ff81a3"/></linearGradient></defs><title>Weight Loss + Diabetes Management</title><circle class="cls-1" cx="28" cy="28" r="27"/><path class="cls-2" d="M32.93,13.15H23.07a5.67,5.67,0,0,0-5.66,5.66V31.75a5.67,5.67,0,0,0,5.66,5.66h1.44V41.9a1,1,0,0,0,.95,1h5.08a1,1,0,0,0,.95-1V37.41h1.44a5.67,5.67,0,0,0,5.66-5.66V18.81A5.67,5.67,0,0,0,32.93,13.15ZM26.41,34h3.18v7H26.41Zm5.08,0h.26a.95.95,0,1,0,0-1.89h-7.5a.95.95,0,1,0,0,1.89h.26v1.52H23.07a3.76,3.76,0,0,1-3.76-3.76V18.81a3.76,3.76,0,0,1,3.76-3.76h9.86a3.76,3.76,0,0,1,3.76,3.76V31.75a3.76,3.76,0,0,1-3.76,3.76H31.49Z"/><path class="cls-2" d="M34.73,28.75V18a1,1,0,0,0-.95-.95H22.22a1,1,0,0,0-.95.95V28.75a1,1,0,0,0,.95.95H33.78A1,1,0,0,0,34.73,28.75Zm-1.9-9.82V27.8H23.17V18.93Z"/><path class="cls-2" d="M28,37.92a1.22,1.22,0,1,0,1.22,1.21A1.22,1.22,0,0,0,28,37.92Zm0,1.53a.32.32,0,1,1,.32-.31A.31.31,0,0,1,28,39.45Z"/><path class="cls-2" d="M28,27h0a2.28,2.28,0,0,0,2.28-2.28,8.1,8.1,0,0,0-1.62-4.11A.82.82,0,0,0,28,20.3a.81.81,0,0,0-.67.35,9,9,0,0,0-1.6,4.08A2.28,2.28,0,0,0,28,27Zm-.62-2.28a5,5,0,0,1,.63-2,4.61,4.61,0,0,1,.61,2,.62.62,0,0,1-.62.62A.61.61,0,0,1,27.39,24.73Z"/></svg>