<svg id="Layer_1" data-name="Layer 1" xmlns="http://www.w3.org/2000/svg" xmlns:xlink="http://www.w3.org/1999/xlink" viewBox="0 0 56 56"><defs><style>.cls-1{fill:url(#linear-gradient);}.cls-2{fill:#fff;}</style><linearGradient id="linear-gradient" x1="1" y1="28" x2="55" y2="28" gradientUnits="userSpaceOnUse"><stop offset="0" stop-color="#47d4fa"/><stop offset="1" stop-color="#68f7d4"/><stop offset="1" stop-color="#69f8d3"/></linearGradient></defs><title>Weight Loss + Thyroid Management</title><circle class="cls-1" cx="28" cy="28" r="27"/><path class="cls-2" d="M44.17,24.65a5.63,5.63,0,0,0-7.05-3.13c-1.32.42-2.63.84-4,1.28l-1.08.35v-.22c0-.88,0-1.79,0-2.69h0a2.35,2.35,0,0,0,1.82-2.36V15.8a2.29,2.29,0,0,0-2.33-2.38c-2.26,0-4.62,0-7,0a2.3,2.3,0,0,0-2.37,2.38c0,.67,0,1.34,0,2A2.38,2.38,0,0,0,24,20.23l0,0h0c0,.93,0,1.89,0,2.73v.23a2.36,2.36,0,0,0-.28-.12l-1.32-.43-.05,0c-1.25-.41-2.53-.83-3.81-1.21A5.61,5.61,0,0,0,11.52,28c.66,3.14,1.27,5.9,1.88,8.45a6,6,0,0,0,4.69,4.75,5.94,5.94,0,0,0,6-1.78v1.24a1.77,1.77,0,0,0,2,2h4a1.8,1.8,0,0,0,2-2V39.51a6.27,6.27,0,0,0,10.53-3.13c.42-1.76.81-3.55,1.19-5.28v0l.63-2.88A5.7,5.7,0,0,0,44.17,24.65ZM24,17.81V15.87c0-.44.18-.63.59-.63H31.5a.51.51,0,0,1,.58.57c0,.7,0,1.39,0,2,0,.29-.09.58-.66.58H24.71C24.23,18.44,24.05,18.27,24,17.81Zm1.84,6.57c.52,0,1,0,1.57,0h2.77c0,.33,0,.66,0,1v.53a1.09,1.09,0,0,1-1,1.13c-.74,0-1.53,0-2.35,0a.92.92,0,0,1-.94-1v-.5C25.89,25.13,25.89,24.75,25.88,24.38Zm0-4.1h4.35v.25c0,.7,0,1.36,0,2H25.89c0-.44,0-.89,0-1.33S25.88,20.61,25.86,20.28Zm0,14.65c0-.4.16-.59.52-.64a8.55,8.55,0,0,1,1.15,0h.34c.46,0,.94,0,1.41,0,.65,0,.91.31.91,1v1h-2c-.8,0-1.52,0-2.26,0h-.09v-.09c0-.28,0-.57,0-.83S25.88,35.06,25.88,34.93Zm4.33,5.78,0,0c-1.2,0-2.4,0-3.72,0h-.57v-.53c0-.74,0-1.48,0-2.19h4.32v.47C30.21,39.27,30.22,40,30.21,40.71ZM42.44,28.38v0c0,.15-.07.3-.1.45-.49,2.26-1,4.68-1.58,7.08a4.38,4.38,0,0,1-3.87,3.48,4.26,4.26,0,0,1-3.22-1,4.33,4.33,0,0,1-1.57-3.24,2.69,2.69,0,0,0-2-2.71,2.22,2.22,0,0,0-.59-.07h-2.9a2.62,2.62,0,0,0-2.67,2.65A4.49,4.49,0,0,1,20,39.41a4.3,4.3,0,0,1-4.69-3.16c-.79-3.23-1.43-6.11-2-8.81a3.39,3.39,0,0,1,.73-2.89,4.31,4.31,0,0,1,3.34-1.47l.4.12,1.73.49c.75.23,1.51.48,2.24.72l1.15.37a1.18,1.18,0,0,1,1,1.27,2.91,2.91,0,0,0,2.61,2.78,16.64,16.64,0,0,0,2.91,0A2.9,2.9,0,0,0,32.08,26a1.15,1.15,0,0,1,1-1.24l.54-.18,4.14-1.33a3.79,3.79,0,0,1,3.39.49,3.72,3.72,0,0,1,1.57,2.94A6.47,6.47,0,0,1,42.44,28.38Z"/><path class="cls-2" d="M21.74,29.66a1.13,1.13,0,1,0,0,2.26h0a1.17,1.17,0,0,0,.8-.34,1.19,1.19,0,0,0,.31-.81,1.16,1.16,0,0,0-.35-.8A1.14,1.14,0,0,0,21.74,29.66Z"/><path class="cls-2" d="M18.4,30a1.13,1.13,0,0,0,1.12-1.14,1.17,1.17,0,0,0-.34-.8,1.11,1.11,0,0,0-.79-.33h0a1.11,1.11,0,0,0-.79.33,1.15,1.15,0,0,0,0,1.62,1.15,1.15,0,0,0,.79.32Z"/><path class="cls-2" d="M37.76,27.69A1.09,1.09,0,0,0,37,28a1.16,1.16,0,0,0-.36.79,1.12,1.12,0,0,0,.31.81,1.08,1.08,0,0,0,.79.35h0a1.13,1.13,0,0,0,0-2.26Z"/><path class="cls-2" d="M18.77,32.43h0A1.13,1.13,0,0,0,18,34.37a1.14,1.14,0,0,0,.78.32h0a1.15,1.15,0,0,0,1.12-1.15A1.13,1.13,0,0,0,18.77,32.43Z"/><path class="cls-2" d="M34.37,29.66h0a1.14,1.14,0,0,0-1.13,1.13,1.12,1.12,0,0,0,.32.79,1.19,1.19,0,0,0,.81.34,1.13,1.13,0,0,0,0-2.26Z"/><path class="cls-2" d="M37.35,32.43h0a1.1,1.1,0,0,0-1.12,1.13,1.19,1.19,0,0,0,.34.81,1.14,1.14,0,0,0,.78.32h0a1.16,1.16,0,0,0,1.12-1.15A1.11,1.11,0,0,0,37.35,32.43Z"/></svg>